<?xml version="1.0" encoding="utf-8"?>
<!-- Generator: Adobe Illustrator 27.0.0, SVG Export Plug-In . SVG Version: 6.00 Build 0)  -->
<svg version="1.1" id="Layer_1" xmlns="http://www.w3.org/2000/svg" xmlns:xlink="http://www.w3.org/1999/xlink" x="0px" y="0px"
	 viewBox="0 0 200 200" style="enable-background:new 0 0 200 200;" xml:space="preserve">
<style type="text/css">
	.st0{fill-rule:evenodd;clip-rule:evenodd;fill:#FFFFFF;}
	.st1{fill:#FFFFFF;}
</style>
<g id="Dribbble">
	<g>
		<path class="st0" d="M100,2.3c-26.5,0-29.9,0.1-40.3,0.6S42.2,5,36,7.4c-6.5,2.4-12.4,6.3-17.3,11.3c-5,4.9-8.8,10.8-11.3,17.3
			c-2.4,6.2-4,13.3-4.5,23.7S2.3,73.5,2.3,100s0.1,29.9,0.6,40.3C3.4,150.7,5,157.8,7.4,164c2.4,6.5,6.3,12.4,11.3,17.3
			c4.9,5,10.8,8.8,17.3,11.3c6.2,2.4,13.3,4.1,23.7,4.5c10.4,0.5,13.7,0.6,40.3,0.6s29.9-0.1,40.3-0.6c10.4-0.5,17.5-2.1,23.7-4.5
			c6.5-2.4,12.4-6.3,17.3-11.3c5-4.9,8.8-10.8,11.3-17.3c2.4-6.2,4.1-13.3,4.5-23.7c0.5-10.4,0.6-13.7,0.6-40.3s-0.1-29.9-0.6-40.3
			S195,42.2,192.6,36c-2.5-6.5-6.3-12.4-11.3-17.3c-4.9-5-10.8-8.8-17.3-11.3c-6.2-2.4-13.3-4.1-23.7-4.5
			C129.9,2.4,126.5,2.3,100,2.3z M100,19.9c26.1,0,29.2,0.1,39.5,0.6c9.5,0.4,14.7,2,18.1,3.4c4.6,1.8,7.8,3.9,11.2,7.3
			s5.5,6.7,7.3,11.2c1.3,3.4,2.9,8.6,3.4,18.1c0.5,10.3,0.6,13.4,0.6,39.5s-0.1,29.2-0.6,39.5c-0.4,9.5-2,14.7-3.4,18.1
			c-1.6,4.2-4.1,8.1-7.3,11.2c-3.2,3.2-7,5.7-11.2,7.3c-3.4,1.3-8.6,2.9-18.1,3.4c-10.3,0.5-13.4,0.6-39.5,0.6s-29.2-0.1-39.5-0.6
			c-9.5-0.4-14.7-2-18.1-3.4c-4.2-1.6-8.1-4.1-11.2-7.3c-3.2-3.2-5.7-7-7.3-11.2c-1.3-3.4-2.9-8.6-3.4-18.1
			c-0.5-10.3-0.6-13.4-0.6-39.5s0.1-29.2,0.6-39.5c0.4-9.5,2-14.7,3.4-18.1c1.8-4.6,3.9-7.8,7.3-11.2c3.2-3.2,7-5.7,11.2-7.3
			c3.4-1.3,8.6-2.9,18.1-3.4C70.8,20,73.9,19.9,100,19.9z"/>
		<path class="st1" d="M123.3,133.8c-2.2-10.1-4.8-19.4-7.5-27.7c2.8-0.4,5.5-0.6,8.3-0.6l0,0c5.4,0.1,10.8,0.7,16.1,2
			c-2,10.7-8.1,20.2-17.1,26.4 M100,141.1c-8.8,0-17.4-2.8-24.5-8.1c2.7-4.4,5.9-8.4,9.6-11.9c6.1-5.9,13.3-10.3,21.3-13
			c3.5,9.8,6.2,19.9,8.1,30.1C110,140.1,105,141.1,100,141.1 M58.9,100v-0.6h4.5c12.6,0.1,25.2-1.7,37.3-5.3
			c0.8,1.7,1.6,3.5,2.4,5.3c-8.6,2.9-16.5,7.5-23.2,13.6c-4.3,4-8.2,8.5-11.5,13.3C62.2,119,58.8,109.6,58.9,100 M81.8,63.1
			c5.7,6.9,10.6,14.4,14.7,22.4c-10.6,3-21.5,4.6-32.5,4.6h-4C63,78.3,71,68.5,81.8,63.1 M100,58.9c9.3,0,18.4,3.2,25.6,9
			c-5.6,6.3-12.5,11.3-20.3,14.4c-4.1-7.9-8.8-15.4-14.2-22.5C94,59.2,97,58.9,100,58.9 M132.3,74.7c5.3,6.7,8.3,14.9,8.7,23.5
			c-5.5-1.2-11.2-1.8-16.8-1.8l0,0c-4,0-8,0.3-11.9,1c-0.9-2.2-1.7-4.3-2.7-6.4C118.3,87.3,126.1,81.7,132.3,74.7 M100,47.3
			c-29.1,0-52.7,23.6-52.7,52.7s23.6,52.7,52.7,52.7s52.7-23.6,52.7-52.7S129.1,47.3,100,47.3z"/>
	</g>
</g>
</svg>
