<?xml version="1.0" encoding="utf-8"?>
<!-- Generator: Adobe Illustrator 27.0.0, SVG Export Plug-In . SVG Version: 6.00 Build 0)  -->
<svg version="1.1" id="Layer_1" xmlns="http://www.w3.org/2000/svg" xmlns:xlink="http://www.w3.org/1999/xlink" x="0px" y="0px"
	 viewBox="0 0 200 161.9" style="enable-background:new 0 0 200 161.9;" xml:space="preserve">
<style type="text/css">
	.st0{fill:#FFFFFF;}
</style>
<g id="Email">
	<path class="st0" d="M168.4,2.6H31.6C15.4,2.6,2.3,15.7,2.3,31.9v97.7c0,16.2,13.1,29.3,29.3,29.3h136.8
		c16.2,0,29.3-13.1,29.3-29.3V31.9C197.7,15.7,184.6,2.6,168.4,2.6z M168.4,22.1c1.8,0,3.4,0.5,4.9,1.3c-0.3,0.2-0.7,0.4-1,0.6
		l-60.6,45.4c-6.9,5.2-16.5,5.2-23.5,0L27.7,24.1c-0.3-0.2-0.6-0.4-1-0.6c1.4-0.8,3.1-1.3,4.9-1.3h136.8V22.1z M168.4,139.4H31.6
		c-5.4,0-9.8-4.4-9.8-9.8V44.1l54.7,41c6.9,5.2,15,7.9,23.5,7.9s16.6-2.7,23.5-7.8l54.7-41v85.5C178.2,135,173.8,139.4,168.4,139.4z
		"/>
</g>
</svg>
