<?xml version="1.0" encoding="utf-8"?>
<!-- Generator: Adobe Illustrator 27.0.0, SVG Export Plug-In . SVG Version: 6.00 Build 0)  -->
<svg version="1.1" id="Layer_1" xmlns="http://www.w3.org/2000/svg" xmlns:xlink="http://www.w3.org/1999/xlink" x="0px" y="0px"
	 viewBox="0 0 200 200" style="enable-background:new 0 0 200 200;" xml:space="preserve">
<style type="text/css">
	.st0{fill:#FFFFFF;}
</style>
<path class="st0" d="M99.9,5C47.5,5,5,47.6,5,100s42.5,95,94.9,95c52.5,0,95.1-42.6,95.1-95S152.4,5,99.9,5z M165.7,62h-28
	c-3-11.9-7.4-23.3-13.1-33.8C142.1,34.2,156.6,46.3,165.7,62z M100,24.4c7.9,11.4,14.1,24,18.1,37.6H81.9
	C85.9,48.4,92.1,35.8,100,24.4z M26.5,119c-1.5-6.1-2.5-12.4-2.5-19s0.9-12.9,2.5-19h32.1c-0.8,6.3-1.3,12.5-1.3,19s0.6,12.7,1.3,19
	H26.5z M34.3,138h28c3,11.9,7.4,23.3,13.1,33.8C57.9,165.8,43.4,153.8,34.3,138L34.3,138z M62.3,62h-28
	c9.1-15.8,23.7-27.8,41.1-33.8C69.7,38.7,65.3,50.1,62.3,62L62.3,62z M100,175.6c-7.9-11.4-14.1-24-18.1-37.6h36.3
	C114.1,151.6,107.9,164.2,100,175.6z M122.2,119H77.8c-0.9-6.3-1.5-12.5-1.5-19s0.7-12.8,1.5-19h44.5c0.9,6.2,1.5,12.5,1.5,19
	S123.1,112.7,122.2,119z M124.6,171.8c5.7-10.5,10.1-21.9,13.1-33.8h28C156.6,153.7,142.1,165.8,124.6,171.8z M141.4,119
	c0.8-6.3,1.3-12.5,1.3-19s-0.6-12.7-1.3-19h32.1c1.5,6.1,2.5,12.4,2.5,19s-0.9,12.9-2.5,19H141.4z"/>
</svg>
