<?xml version="1.0" encoding="utf-8"?>
<!-- Generator: Adobe Illustrator 27.0.0, SVG Export Plug-In . SVG Version: 6.00 Build 0)  -->
<svg version="1.1" id="Layer_1" xmlns="http://www.w3.org/2000/svg" xmlns:xlink="http://www.w3.org/1999/xlink" x="0px" y="0px"
	 viewBox="0 0 200 200" style="enable-background:new 0 0 200 200;" xml:space="preserve">
<style type="text/css">
	.st0{fill-rule:evenodd;clip-rule:evenodd;fill:#FFFFFF;}
</style>
<g>
	<path class="st0" d="M100,2.3c-26.5,0-29.9,0.1-40.3,0.6S42.2,5,36,7.4c-6.5,2.4-12.4,6.3-17.3,11.3c-5,4.9-8.8,10.8-11.3,17.3
		c-2.4,6.2-4,13.3-4.5,23.7S2.3,73.5,2.3,100s0.1,29.9,0.6,40.3C3.4,150.7,5,157.8,7.4,164c2.4,6.5,6.3,12.4,11.3,17.3
		c4.9,5,10.8,8.8,17.3,11.3c6.2,2.4,13.3,4.1,23.7,4.5c10.4,0.5,13.7,0.6,40.3,0.6s29.9-0.1,40.3-0.6c10.4-0.5,17.5-2.1,23.7-4.5
		c6.5-2.4,12.4-6.3,17.3-11.3c5-4.9,8.8-10.8,11.3-17.3c2.4-6.2,4.1-13.3,4.5-23.7c0.5-10.4,0.6-13.7,0.6-40.3s-0.1-29.9-0.6-40.3
		S195,42.2,192.6,36c-2.5-6.5-6.3-12.4-11.3-17.3c-4.9-5-10.8-8.8-17.3-11.3c-6.2-2.4-13.3-4.1-23.7-4.5
		C129.9,2.4,126.5,2.3,100,2.3z M100,19.9c26.1,0,29.2,0.1,39.5,0.6c9.5,0.4,14.7,2,18.1,3.4c4.6,1.8,7.8,3.9,11.2,7.3
		s5.5,6.7,7.3,11.2c1.3,3.4,2.9,8.6,3.4,18.1c0.5,10.3,0.6,13.4,0.6,39.5s-0.1,29.2-0.6,39.5c-0.4,9.5-2,14.7-3.4,18.1
		c-1.6,4.2-4.1,8.1-7.3,11.2c-3.2,3.2-7,5.7-11.2,7.3c-3.4,1.3-8.6,2.9-18.1,3.4c-10.3,0.5-13.4,0.6-39.5,0.6s-29.2-0.1-39.5-0.6
		c-9.5-0.4-14.7-2-18.1-3.4c-4.2-1.6-8.1-4.1-11.2-7.3c-3.2-3.2-5.7-7-7.3-11.2c-1.3-3.4-2.9-8.6-3.4-18.1
		c-0.5-10.3-0.6-13.4-0.6-39.5s0.1-29.2,0.6-39.5c0.4-9.5,2-14.7,3.4-18.1c1.8-4.6,3.9-7.8,7.3-11.2c3.2-3.2,7-5.7,11.2-7.3
		c3.4-1.3,8.6-2.9,18.1-3.4C70.8,20,73.9,19.9,100,19.9z"/>
	<g id="_x37_935ec95c421cee6d86eb22ecd125aef">
		<path class="st0" d="M77.7,141.3V80.2H57.3v61.2L77.7,141.3L77.7,141.3z M67.5,71.8c7.1,0,11.5-4.7,11.5-10.6
			c-0.1-6-4.4-10.6-11.4-10.6c-7,0-11.5,4.6-11.5,10.6c0,5.9,4.4,10.6,11.2,10.6L67.5,71.8L67.5,71.8z M88.9,141.3
			c0,0,0.3-55.4,0-61.2h20.3V89h-0.1c2.7-4.2,7.5-10.3,18.5-10.3c13.4,0,23.4,8.7,23.4,27.5v35.1h-20.3v-32.7
			c0-8.2-2.9-13.8-10.3-13.8c-5.6,0-9,3.8-10.4,7.4c-0.5,1.3-0.7,3.1-0.7,5v34.2H88.9L88.9,141.3z"/>
	</g>
</g>
</svg>
