<?xml version="1.0" encoding="utf-8"?>
<!-- Generator: Adobe Illustrator 27.0.0, SVG Export Plug-In . SVG Version: 6.00 Build 0)  -->
<svg version="1.1" id="Layer_1" xmlns="http://www.w3.org/2000/svg" xmlns:xlink="http://www.w3.org/1999/xlink" x="0px" y="0px"
	 viewBox="0 0 200 200" style="enable-background:new 0 0 200 200;" xml:space="preserve">
<style type="text/css">
	.st0{fill:#FFFFFF;}
</style>
<g id="Logo_Design">
	<path class="st0" d="M197.6,181c-0.2-2.8-0.5-5.6-0.7-8.3c-0.4-6.2-0.2-12.4,0.1-18.6c0.2-3.4-2.9-6.2-6.2-6.2
		c-1.7,0-3.1,0.7-4.2,1.8c-0.7-0.2-1.3-0.4-2.1-0.4c-0.7,0.1-1.3,0.1-1.9,0.2c-0.2-2-0.2-3.9-0.3-5.9c-0.1-2.6-0.2-5.1-0.3-7.7
		c-0.2-5.8-0.5-11.6-0.8-17.3c-0.2-5.7-0.1-11.5,0-17.3c0-2.8,0-5.5,0.2-8.3c0.1-2.8,0.3-5.7,0.4-8.5c0.2-5.1,0.2-10.2,0.3-15.3
		c0.1-5,0.2-10.1,0.2-15.1c0.8,0.1,1.7,0.2,2.5,0.3c1.4,0.1,2.8,0.2,4.1,0.2c0.6,0,1.2-0.2,1.8-0.3c0.1,0,0.1,0,0.2,0
		c3.1,0,5.8-2.6,5.8-5.8c0-5.5,0.1-11.1,0.2-16.6c0.1-6.1,0.7-12.3,0.8-18.4c0-1.7-0.8-3.3-1.9-4.4c-0.7-1.9-2.1-3.6-4.2-4.1
		c-1.7-0.4-3.4-0.3-5.1-0.5c-1.5-0.1-3-0.2-4.5-0.2c-2.3-0.1-4.7-0.3-7-0.3c-2.8,0-5.6,0-8.5,0c-4.8,0-9.6,0-14.4,0.2
		c-3.7,0.1-6.8,3-6.8,6.8c0,1.9,0.9,3.6,2.2,4.9c0.1,1.5,0.2,2.9,0.3,4.4c-2.3,0.1-4.6,0.1-6.9,0.2c-2.7,0-5.5,0.2-8.2,0.2
		c-5.1,0-10.2,0.1-15.3,0c-5.9,0-11.8,0-17.8-0.1c-5.7-0.1-11.4-0.3-17-0.4c-5.1-0.1-10.3,0-15.4-0.2c-4.4-0.1-8.8-0.2-13.2-0.4
		c0-1.5,0-2.9,0-4.4c0-1.4-0.6-2.7-1.4-3.7c0-0.1,0-0.1,0-0.2c0-1.7-0.7-3.3-1.8-4.5c-1.3-1.3-2.7-1.7-4.5-1.8
		c-5.5-0.5-11.1,0-16.7,0c-7,0-14-0.2-20.9-0.3H8.6c-3.4,0-6.3,2.9-6.3,6.3c0,1.8,0.9,3.5,2.2,4.7c0.1,2.7,0.3,5.4,0.3,8.1
		c0.1,2.9,0,5.8,0,8.7c0,2.9,0,5.8,0,8.7c0,2.8,0,5.5,0.3,8.2c0.2,1.7,0.5,3,1.8,4.2c1.1,1.1,2.7,1.8,4.3,1.8c0.5,0,1-0.2,1.5-0.3
		c2.4,0,4.9-0.1,7.3-0.1c-0.1,5.8,0,11.6-0.2,17.4c-0.2,5.6-0.4,11.2-0.9,16.7c-0.2,2.7-0.6,5.4-0.6,8.1c0,2.8,0.1,5.7,0.1,8.5
		c0,5.7-0.1,11.4,0,17c0,4.8,0.3,9.5,0.5,14.3c0.2,3.7,0.3,7.3,0.6,10.9c-1.6,0-3.3-0.1-4.9-0.1c-2.3,0-4.2,1.3-5.4,3.1
		c-1.7,1.1-2.9,2.9-2.9,5.1c0,3.3,0.2,6.7,0.2,10c0,2.7,0,5.4-0.1,8s-0.1,5.1-0.1,7.7c0,1.1,0,2.2,0.1,3.4c0.1,1.8,0.3,3.4,1.2,5
		c0,0.1,0.1,0.1,0.2,0.2c0.9,2.3,3.2,3.9,5.7,3.9c6.9-0.1,13.8-0.1,20.7-0.1c2.1,0,4.1,0.2,6.1,0.2c1.9,0,3.9,0,5.7,0.2
		c-0.2,0-0.3,0-0.4-0.1c1.3,0.1,2.5-0.1,3.7-0.8c1.4-0.8,2.4-2.1,2.8-3.6c0.1-0.2,0-0.5,0.1-0.8c1.8-1,3.1-2.9,3.1-5
		c0-0.4,0-0.8,0-1.3c11.8-0.6,23.5-1,35.3-0.7c5.9,0.1,11.7,0.2,17.6,0.4c5.4,0.2,10.7,0.6,16.1,0.6c4.6,0,9.2,0.2,13.8,0.2
		c3,0,6,0,9-0.1c0.1,2,0.3,4,0.5,5.9c0.3,1,0.8,1.9,1.5,2.6c0.6,0.6,1.4,1.1,2.3,1.3c1.2,1.8,3,3,5.2,3c5.5-0.1,11-0.5,16.5-0.5
		c1.2,0,2.5,0,3.7,0c3.5,0.1,6.9,0.1,10.3-0.6c1.5-0.3,2.7-1.3,3.5-2.6c2.8,0.5,6.1-1.2,6.7-4.1C197.8,185.9,197.7,183.5,197.6,181z
		 M174.1,16.8c1.3,0,2.5,0.2,3.8,0.3c1.1,0.1,2.2,0.1,3.3,0.2c1.4,0.1,2.7,0.2,4.1,0.2c0,4.7-0.1,9.4-0.2,14.2c0,3.5,0,7,0,10.5
		c-1.2-0.1-2.4-0.1-3.7-0.2c-2.8-0.2-5.6,0-8.3,0c-3.4,0-6.8,0-10.1,0c-0.9,0-1.9,0-2.8,0c0-3.8,0-7.6-0.1-11.4
		c-0.1-4.3-0.2-8.7-0.4-13c1.6-0.1,3.2-0.1,4.9-0.2C167.8,17.1,171,16.8,174.1,16.8z M32.5,17.1c2,0,4,0,6,0c0.9,0,1.8,0.1,2.7,0.1
		c0.1,2.9,0.2,5.8,0.3,8.7c0.1,3,0.1,6.1,0.1,9.2c0,2.5,0.2,5,0.3,7.5c0,0.1,0,0.3,0,0.4c-3.6,0-7.2-0.1-10.8,0
		c-4.9,0.1-9.7-0.1-14.6-0.2c0-0.8-0.1-1.6-0.1-2.5c0-2.8,0-5.7,0-8.5c-0.1-4.9-0.1-9.8-0.2-14.6c4.4-0.1,8.8-0.1,13.2-0.1
		C30.5,17.2,31.5,17.1,32.5,17.1z M40.5,182.3c-2,0-4.1-0.1-6.1-0.1c-2.8-0.1-5.7-0.2-8.5-0.3c-2.5-0.1-4.9-0.1-7.3-0.1
		c-0.1-2.8-0.1-5.7-0.1-8.5c-0.1-4.2,0-8.4,0-12.7c3.6,0,7.1,0,10.7-0.1c1.9,0,3.7,0,5.6-0.1c1.4,0,2.9-0.1,4.3,0.1
		c-0.5-0.1-1.1-0.2-1.6-0.2c2,0.3,3.9,0.4,5.9,0.4c0,7.1,0,14.3,0.2,21.4c-0.3,0-0.5,0-0.8,0C41.9,182.3,41.2,182.4,40.5,182.3z
		 M134.7,172.1c-5.4-0.1-10.8-0.2-16.1-0.3c-5.6-0.2-11.3-0.5-16.9-0.7c-2.7-0.1-5.4-0.1-8.2-0.1c-3,0-6.1,0-9.1,0.1
		c-9.7,0.2-19.4,0.1-29.2,0.5c0.1-4.6,0.4-9.1,0.5-13.7c0-1.2-0.5-2.4-1.1-3.3c-0.1-3.3-2.8-6-6.2-6c-2.2,0-4.4,0-6.6,0
		c-0.6,0-1.1,0-1.7,0c-1.2,0-2.4,0-3.6-0.1c-1.9-0.1-3.7-0.2-5.6-0.2c-0.5-4.7-0.5-9.4-0.6-14.1c-0.1-2.7-0.2-5.3-0.2-8
		s0.1-5.4,0-8.1c-0.1-5.7,0-11.4-0.1-17.1c0-2.8-0.1-5.6-0.1-8.4c0-2.6,0.4-5.3,0.4-7.9c0.1-2.4,0-4.8,0.1-7.1
		c0.1-2.6,0.2-5.1,0.4-7.7c0.3-5,0.5-10,0.7-15c2.5,0.1,5,0.2,7.5,0.2c1.4,0,2.7,0,4,0c1.1,0,2.3,0,3.4,0c0.6,0,1.1-0.2,1.6-0.3h0.1
		c3,0,6.3-2.7,6-6c-0.2-2-0.2-4.1-0.2-6.1c-0.1-2.5-0.2-5-0.1-7.5c0-1.4,0-2.8,0-4.2c4.4,0,8.9,0.1,13.3,0c6.5,0,13.1-0.1,19.6,0.1
		c5.7,0.2,11.3,0.4,16.9,0.5c3.1,0.1,6.2,0,9.3,0c2.6,0,5.3,0,8,0c4.5,0,8.9,0,13.4-0.2c2.4-0.1,4.8-0.2,7.2-0.3
		c2.2-0.1,4.4-0.2,6.7-0.1c0.1,4.3,0.2,8.6,0.2,12.9c-1,1.1-1.6,2.5-1.6,4.1c0,3.3,2.8,6.2,6.2,6.2c5.8-0.1,11.6-0.3,17.3-0.3
		c0,6.4,0.1,12.7,0.2,19.1c0,3.1,0,6.1,0,9.2c0,3-0.2,5.9-0.3,8.9c-0.2,5.4-0.3,10.7-0.2,16.1c0,3,0,5.9,0.1,8.9
		c0.1,2.9,0.3,5.8,0.5,8.6c0.4,8.4,0.9,16.8,1,25.2c-5.5-0.2-10.9-0.5-16.4-0.8c-0.1,0-0.2,0-0.3,0c-3.4,0-6.2,3.2-6.2,6.5
		c0,0.1,0,0.1,0,0.2c-1.3,1.1-2.1,2.8-2.1,4.6c0,4,0.1,7.9,0.2,11.9C142.7,172.2,138.7,172.2,134.7,172.1z M183.8,183
		c-0.2,0-0.4,0.1-0.6,0.1c-1.5,0.1-3,0.1-4.5,0.1c-2.2,0-4.5,0-6.7,0.1c-4.4,0.1-8.8,0.1-13.2,0.1c-0.1-2.8-0.1-5.6-0.1-8.4
		c0.1-4.3,0.2-8.6,0.2-13c4.3,0.2,8.7,0.3,13,0.3c2.5,0,5,0,7.5-0.1c1.7-0.1,3.4-0.4,5.1-0.7c0,3.6,0.1,7.1,0.4,10.7
		c0.2,2.7,0.5,5.4,0.7,8.1c0.1,0.8,0.1,1.6,0.2,2.5c-0.1,0-0.2,0-0.3,0C185,182.8,184.4,182.9,183.8,183z"/>
</g>
</svg>
