<?xml version="1.0" encoding="utf-8"?>
<!-- Generator: Adobe Illustrator 27.0.0, SVG Export Plug-In . SVG Version: 6.00 Build 0)  -->
<svg version="1.1" id="Layer_1" xmlns="http://www.w3.org/2000/svg" xmlns:xlink="http://www.w3.org/1999/xlink" x="0px" y="0px"
	 viewBox="0 0 500 108" style="enable-background:new 0 0 500 108;" xml:space="preserve">
<style type="text/css">
	.st0{fill:url(#SVGID_1_);}
	.st1{fill:url(#SVGID_00000038403787645979160830000001708567146111390605_);}
	.st2{fill:url(#SVGID_00000067945969087029493210000004760607335894904476_);}
	.st3{fill:#FDB715;}
	.st4{font-family:'MyriadPro-Regular';}
	.st5{font-size:62.0298px;}
</style>
<g>
	<g>
		<g>
			<linearGradient id="SVGID_1_" gradientUnits="userSpaceOnUse" x1="59.9893" y1="54.1346" x2="143.9724" y2="54.1346">
				<stop  offset="0" style="stop-color:#26A9E0"/>
				<stop  offset="1" style="stop-color:#219DC8"/>
			</linearGradient>
			<path class="st0" d="M115.8,87.1c-1.1-1.7-3.3-2.5-5.3-2c-2.7,0.8-5.6,1.2-8.6,1.2c-17.8,0-32.3-14.6-32.1-32.4
				C70,36.4,84.2,22.1,101.7,22c17.8-0.1,32.4,14.3,32.4,32.1c0,5.4-1.3,10.4-3.7,14.9c-0.8,1.6-0.7,3.4,0.3,4.9l0.2,0.2
				c2,3,6.5,2.8,8.3-0.4c3.1-5.8,4.8-12.5,4.8-19.5c0-22.7-17.9-41.2-40.6-42C79.1,11.4,59.3,31.2,60,55.4c0.7,23,19.6,41,42.5,40.7
				c3.7,0,7.3-0.6,10.7-1.5c3.2-0.9,4.5-4.6,2.7-7.3L115.8,87.1z"/>
		</g>
		
			<linearGradient id="SVGID_00000102528655149483561360000003239803865537045934_" gradientUnits="userSpaceOnUse" x1="73.2374" y1="54.1419" x2="130.7244" y2="54.1419">
			<stop  offset="0" style="stop-color:#FFFFFF;stop-opacity:0"/>
			<stop  offset="1" style="stop-color:#E6E7E8"/>
		</linearGradient>
		<circle style="fill:url(#SVGID_00000102528655149483561360000003239803865537045934_);" cx="102" cy="54.1" r="28.7"/>
		<g>
			
				<linearGradient id="SVGID_00000021812840617420571810000002872681087231925692_" gradientUnits="userSpaceOnUse" x1="93.787" y1="53.5149" x2="113.8908" y2="53.5149">
				<stop  offset="0" style="stop-color:#26A9E0"/>
				<stop  offset="1" style="stop-color:#219DC8"/>
			</linearGradient>
			<path style="fill:url(#SVGID_00000021812840617420571810000002872681087231925692_);" d="M93.8,45v17c0,1.9,2,3,3.6,2.1l15.2-8.5
				c1.7-0.9,1.7-3.3,0-4.2l-15.2-8.5C95.8,42,93.8,43.1,93.8,45z"/>
		</g>
		<g>
			<path class="st3" d="M54,22c12.7-0.3,23.8,6.9,29.3,17.5c0,0,0,0,0,0c2.1-2.7,4.7-4.9,7.7-6.4c-7.3-12.5-21-21-36.5-20.9
				c-23.3,0.1-42.2,19.5-41.7,42.8c0.1,6.8,1.9,13.1,4.8,18.8c1.7,3.2,6.2,3.5,8.3,0.4l0.1-0.2c1-1.5,1.1-3.4,0.3-4.9
				c-2.4-4.6-3.7-9.8-3.7-15.3C22.8,36.4,36.8,22.4,54,22z"/>
			<path class="st3" d="M83.3,68.8C78,79.2,67.2,86.3,54.7,86.3c-3,0-5.9-0.4-8.6-1.2c-2-0.6-4.1,0.3-5.3,2l-0.1,0.2
				c-1.8,2.7-0.5,6.4,2.7,7.3c3.6,1,7.4,1.6,11.3,1.6c15.5,0,29-8.4,36.3-20.9C88,73.7,85.4,71.5,83.3,68.8z"/>
		</g>
	</g>
	<text transform="matrix(1 0 0 1 168.3779 75.8746)" class="st3 st4 st5">OO MOTION</text>
</g>
</svg>
