<?xml version="1.0" encoding="utf-8"?>
<!-- Generator: Adobe Illustrator 27.0.0, SVG Export Plug-In . SVG Version: 6.00 Build 0)  -->
<svg version="1.1" id="Layer_1" xmlns="http://www.w3.org/2000/svg" xmlns:xlink="http://www.w3.org/1999/xlink" x="0px" y="0px"
	 viewBox="0 0 200 192.5" style="enable-background:new 0 0 200 192.5;" xml:space="preserve">
<style type="text/css">
	.st0{fill:#FFFFFF;}
</style>
<g id="Logo_Animation">
	<g>
		<path class="st0" d="M114.5,4.4c-3.6-3.4-9.4-3.3-12.8,0.3c-0.2,0.2-0.4,0.4-0.5,0.6c-3.5,4-3.1,10,0.9,13.5s10,3.1,13.5-0.9
			s3.1-10-0.9-13.5C114.6,4.5,114.6,4.5,114.5,4.4z"/>
		<path class="st0" d="M143.6,18.3c-3.8,4.3-3.4,11,1,14.8c3.8,4.7,10.7,5.5,15.4,1.7s5.5-10.7,1.7-15.4c-0.8-1-1.7-1.8-2.8-2.4
			c-4.3-3.8-11-3.4-14.8,0.9C143.9,17.9,143.7,18.1,143.6,18.3z"/>
		<path class="st0" d="M193.2,69.7c4.5-5.5,3.7-13.6-1.8-18.1s-13.6-3.7-18.1,1.8c-4.3,5.3-3.7,13.1,1.4,17.7
			c5.3,4.8,13.4,4.3,18.2-0.9C192.9,70.1,193.1,69.9,193.2,69.7z"/>
		<path class="st0" d="M193.7,109.8c-6.3-6.7-16.8-7.1-23.6-0.8c-6.7,6.3-7.1,16.8-0.8,23.6c0.9,0.9,1.9,1.8,3,2.5
			c7.7,5.1,18,3,23.1-4.6C199.6,124,198.9,115.5,193.7,109.8z"/>
		<path class="st0" d="M117.9,155.1c-7.8,9-6.8,22.5,2.2,30.3s22.5,6.8,30.3-2.2c7.8-9,6.8-22.5-2.2-30.3c-0.1-0.1-0.2-0.1-0.2-0.2
			c-8.7-7.7-22-6.8-29.6,1.9C118.1,154.8,118,154.9,117.9,155.1z"/>
		<path class="st0" d="M40.6,141.7c-8.5,10.1-7.5,25.1,2.4,33.9c10,8.6,25,7.4,33.6-2.6s7.4-25-2.6-33.6
			C64.1,130.9,49.2,132,40.6,141.7z"/>
		<circle class="st0" cx="28.2" cy="83.8" r="26.3"/>
	</g>
</g>
</svg>
