<?xml version="1.0" encoding="utf-8"?>
<!-- Generator: Adobe Illustrator 27.0.0, SVG Export Plug-In . SVG Version: 6.00 Build 0)  -->
<svg version="1.1" id="Layer_1" xmlns="http://www.w3.org/2000/svg" xmlns:xlink="http://www.w3.org/1999/xlink" x="0px" y="0px"
	 viewBox="0 0 200 150.5" style="enable-background:new 0 0 200 150.5;" xml:space="preserve">
<style type="text/css">
	.st0{fill:#FFFFFF;}
</style>
<g id="Motion_Graphics">
	<path class="st0" d="M196.9,46c-1.5-14.2-3.9-18.4-5.9-20.7c-6.1-6.6-17.4-2-26.6,2.8c-6.2,3.2-13.1,7.5-19.9,12.3
		c-2.7-9.1-6.8-16.2-12.4-21.8C120.6,7.1,103.1,2,75.3,2S30,7.1,18.5,18.6S1.9,47.6,1.9,75.5s5.1,45.5,16.6,57s29,16.6,56.8,16.6
		s45.3-5.1,56.8-16.6c5.7-5.7,9.8-12.9,12.5-22c6.8,4.8,13.9,9.1,20,12.3c6.3,3.3,13,6.3,18.5,6.3c3,0,5.7-0.9,7.8-3.1
		c2.1-2.3,4.3-6.3,5.8-20.3c0.9-8.3,1.4-18.8,1.5-29.8C198.2,64.8,197.7,54.2,196.9,46z M121.9,122.3c-8.6,8.6-22.9,12.4-46.6,12.4
		s-38.1-3.8-46.6-12.4c-8.6-8.6-12.4-23-12.4-46.8s3.8-38.2,12.4-46.8s22.9-12.4,46.6-12.4s38.1,3.8,46.6,12.4
		c5.4,5.5,9,13.3,10.8,24.4c0,0.6,0.1,1.2,0.3,1.7c0.9,6,1.3,12.8,1.3,20.7c0,7.8-0.4,14.5-1.3,20.4c-0.2,0.7-0.3,1.3-0.3,2
		C130.8,109.1,127.3,116.9,121.9,122.3z M183.8,75.6c-0.1,19.4-1.6,33-3,38.6c-2.2-0.7-6.2-2.2-12.8-5.9
		c-6.5-3.6-13.7-8.4-20.4-13.4c0.7-5.8,1-12.3,1-19.4c0-7.2-0.3-13.7-1-19.6c6.6-5,13.8-9.8,20.2-13.4c6.9-3.9,10.9-5.3,13-5.9
		c0.5,1.9,1.3,5.6,1.9,12.1C183.4,56.3,183.8,65.8,183.8,75.6z"/>
</g>
</svg>
