<?xml version="1.0" encoding="utf-8"?>
<!-- Generator: Adobe Illustrator 27.0.0, SVG Export Plug-In . SVG Version: 6.00 Build 0)  -->
<svg version="1.1" id="Layer_1" xmlns="http://www.w3.org/2000/svg" xmlns:xlink="http://www.w3.org/1999/xlink" x="0px" y="0px"
	 viewBox="0 0 140.9 200" style="enable-background:new 0 0 140.9 200;" xml:space="preserve">

<g id="Call">
	<path class="st0" d="M136.2,175.3l-14.5-30.1c-3.1-6.4-7.1-11.1-14.1-8.2l-13.7,5c-11,5.1-16.5,0-22-7.7L47.2,78.2
		c-3.1-6.4-1.5-12.5,5.5-15.3l19.2-7.7c7-2.9,5.9-8.9,2.7-15.3L58.2,9.2c-3.1-6.4-9.5-8-16.5-5.1C27.8,9.8,16.3,18.8,8.8,32.2
		c-9.1,16.3-4.6,39-2.7,48.5s8.2,26.3,16.5,43.4c8.2,17.2,15.5,30.7,22,38.3c6.5,7.6,22,28.5,41.2,33.2c15.7,3.8,32.7,0.6,46.6-5.1
		C139.3,187.8,139.3,181.7,136.2,175.3z"/>
</g>
</svg>
