<?xml version="1.0" encoding="utf-8"?>
<!-- Generator: Adobe Illustrator 27.0.0, SVG Export Plug-In . SVG Version: 6.00 Build 0)  -->
<svg version="1.1" id="Layer_1" xmlns="http://www.w3.org/2000/svg" xmlns:xlink="http://www.w3.org/1999/xlink" x="0px" y="0px"
	 viewBox="0 0 200 200" style="enable-background:new 0 0 200 200;" xml:space="preserve">
<style type="text/css">
	.st0{fill:#FFFFFF;}
</style>
<g id="Social_media">
	<g>
		<path class="st0" d="M189.8,2.7H10.2c-4.1,0-7.5,3.4-7.5,7.5v179.6c0,4.1,3.4,7.5,7.5,7.5h179.6c4.1,0,7.5-3.4,7.5-7.5V10.2
			C197.3,6.1,193.9,2.7,189.8,2.7z M182.3,17.7v49.8l-48.9,61.1c-2.6,3.2-7.3,3.7-10.5,1.1l-28.7-23.2l-0.4-0.3l0,0
			c-9.8-7.5-23.9-5.7-31.5,4.2l-44.6,57.5V17.7H182.3z M25.4,182.3l48.8-62.9c2.5-3.3,7.2-3.9,10.5-1.4l0.1,0.1l28.7,23.2l0,0
			c9.7,7.8,23.8,6.3,31.6-3.4l0.1-0.1l37.1-46.4v90.9H25.4z"/>
		<circle class="st0" cx="70.1" cy="62.6" r="15"/>
	</g>
</g>
</svg>
