<?xml version="1.0" encoding="utf-8"?>
<!-- Generator: Adobe Illustrator 27.0.0, SVG Export Plug-In . SVG Version: 6.00 Build 0)  -->
<svg version="1.1" id="Layer_1" xmlns="http://www.w3.org/2000/svg" xmlns:xlink="http://www.w3.org/1999/xlink" x="0px" y="0px"
	 viewBox="0 0 200 200" style="enable-background:new 0 0 200 200;" xml:space="preserve">
<style type="text/css">
	.st0{fill-rule:evenodd;clip-rule:evenodd;fill:#FFFFFF;}
</style>
<g id="Vimeo">
	<g>
		<path class="st0" d="M100,2.3c-26.5,0-29.9,0.1-40.3,0.6S42.2,5,36,7.4c-6.5,2.4-12.4,6.3-17.3,11.3c-5,4.9-8.8,10.8-11.3,17.3
			c-2.4,6.2-4,13.3-4.5,23.7S2.3,73.5,2.3,100s0.1,29.9,0.6,40.3C3.4,150.7,5,157.8,7.4,164c2.4,6.5,6.3,12.4,11.3,17.3
			c4.9,5,10.8,8.8,17.3,11.3c6.2,2.4,13.3,4.1,23.7,4.5c10.4,0.5,13.7,0.6,40.3,0.6s29.9-0.1,40.3-0.6c10.4-0.5,17.5-2.1,23.7-4.5
			c6.5-2.4,12.4-6.3,17.3-11.3c5-4.9,8.8-10.8,11.3-17.3c2.4-6.2,4.1-13.3,4.5-23.7c0.5-10.4,0.6-13.7,0.6-40.3s-0.1-29.9-0.6-40.3
			S195,42.2,192.6,36c-2.5-6.5-6.3-12.4-11.3-17.3c-4.9-5-10.8-8.8-17.3-11.3c-6.2-2.4-13.3-4.1-23.7-4.5
			C129.9,2.4,126.5,2.3,100,2.3z M100,19.9c26.1,0,29.2,0.1,39.5,0.6c9.5,0.4,14.7,2,18.1,3.4c4.6,1.8,7.8,3.9,11.2,7.3
			s5.5,6.7,7.3,11.2c1.3,3.4,2.9,8.6,3.4,18.1c0.5,10.3,0.6,13.4,0.6,39.5s-0.1,29.2-0.6,39.5c-0.4,9.5-2,14.7-3.4,18.1
			c-1.6,4.2-4.1,8.1-7.3,11.2c-3.2,3.2-7,5.7-11.2,7.3c-3.4,1.3-8.6,2.9-18.1,3.4c-10.3,0.5-13.4,0.6-39.5,0.6s-29.2-0.1-39.5-0.6
			c-9.5-0.4-14.7-2-18.1-3.4c-4.2-1.6-8.1-4.1-11.2-7.3c-3.2-3.2-5.7-7-7.3-11.2c-1.3-3.4-2.9-8.6-3.4-18.1
			c-0.5-10.3-0.6-13.4-0.6-39.5s0.1-29.2,0.6-39.5c0.4-9.5,2-14.7,3.4-18.1c1.8-4.6,3.9-7.8,7.3-11.2c3.2-3.2,7-5.7,11.2-7.3
			c3.4-1.3,8.6-2.9,18.1-3.4C70.8,20,73.9,19.9,100,19.9z"/>
		<g id="_x37_935ec95c421cee6d86eb22ecd130d31">
			<path class="st0" d="M154.8,72.1c0.9-4.9,0.9-9.9-2.2-13.8c-4.2-5.3-13.2-5.5-19.4-4.6c-5,0.8-22,8.2-27.7,26.2
				c10.2-0.8,15.6,0.7,14.6,12c-0.4,4.7-2.8,9.9-5.4,14.8c-3.1,5.7-8.8,16.9-16.4,8.8c-6.8-7.3-6.3-21.2-7.8-30.4
				c-0.9-5.2-1.8-11.7-3.5-17c-1.5-4.6-4.8-10.1-8.9-11.3c-4.4-1.3-9.9,0.7-13.1,2.6C54.8,65.5,47,74,38.2,81v0.7
				c1.8,1.7,2.2,4.4,4.8,4.8c6.1,0.9,11.9-5.7,15.9,1.2c2.5,4.2,3.2,8.7,4.8,13.2c2.1,6,3.7,12.5,5.4,19.4
				c2.9,11.7,6.5,29.1,16.6,33.3c5.1,2.2,12.9-0.7,16.8-3.1c10.6-6.3,18.9-15.4,25.9-24.6C144.5,104,153.5,79.2,154.8,72.1z"/>
		</g>
	</g>
</g>
</svg>
