<?xml version="1.0" encoding="utf-8"?>
<!-- Generator: Adobe Illustrator 27.0.0, SVG Export Plug-In . SVG Version: 6.00 Build 0)  -->
<svg version="1.1" id="Layer_1" xmlns="http://www.w3.org/2000/svg" xmlns:xlink="http://www.w3.org/1999/xlink" x="0px" y="0px"
	 viewBox="0 0 200 200" style="enable-background:new 0 0 200 200;" xml:space="preserve">
<style type="text/css">
	.st0{fill-rule:evenodd;clip-rule:evenodd;fill:#FFFFFF;}
</style>
<g id="Whatsapp">
	<path class="st0" d="M24.7,100c0-42.9,34.7-77.6,77.6-77.6s77.6,34.7,77.6,77.6s-34.7,77.6-77.6,77.6c-15.3,0-29.5-4.4-41.5-12
		c-2.2-1.4-5-1.8-7.5-1L27,172.4l9.9-23.2c1.2-2.7,0.9-5.9-0.6-8.4C28.9,129,24.7,115,24.7,100z M102.3,4.1c-53,0-95.9,43-95.9,95.9
		c0,16.8,4.3,32.6,11.9,46.3L2.6,183.1c-1.4,3.3-0.8,7,1.6,9.7c2.4,2.6,6,3.7,9.4,2.7l41.1-12.3c14,8,30.3,12.6,47.6,12.6
		c52.9,0,95.9-42.9,95.9-95.9C198.1,47.1,155.2,4.1,102.3,4.1z M123.2,119.9l-12,8.5c-5.6-3.2-11.8-7.7-18.1-13.9
		c-6.5-6.5-11.3-13.2-14.8-19.3l7.6-6.5c3.3-2.8,4.2-7.5,2.2-11.2l-9.7-18.3c-1.3-2.5-3.7-4.2-6.4-4.7c-2.7-0.5-5.6,0.3-7.7,2.1
		l-2.9,2.5c-6.9,6-11,16-7.6,26c3.5,10.4,11,26.8,26.4,42.2c16.6,16.6,33.4,23.1,43.2,25.6c7.9,2,15.4-0.7,20.7-5l5.4-4.4
		c2.3-1.9,3.6-4.8,3.3-7.7c-0.2-3-1.9-5.7-4.4-7.2l-15.3-9.1C130,117.7,126.2,117.9,123.2,119.9z"/>
</g>
</svg>
