<?xml version="1.0" encoding="utf-8"?>
<!-- Generator: Adobe Illustrator 27.0.0, SVG Export Plug-In . SVG Version: 6.00 Build 0)  -->
<svg version="1.1" id="Layer_1" xmlns="http://www.w3.org/2000/svg" xmlns:xlink="http://www.w3.org/1999/xlink" x="0px" y="0px"
	 viewBox="0 0 200 200" style="enable-background:new 0 0 200 200;" xml:space="preserve">
<style type="text/css">
	.st0{fill:#069AC9;}
</style>
<path class="st0" d="M177.5,181.4c0.3-0.1,0.5-0.3,0.7-0.4c0.2-0.1,0.4-0.2,0.7-0.4c0.9-0.6,1.6-1.3,2.2-2.2
	c0.1-0.2,0.2-0.4,0.4-0.7c0.1-0.2,0.3-0.5,0.4-0.7c0.1-0.3,0.2-0.6,0.3-0.9c0.1-0.2,0.1-0.4,0.2-0.6c0.1-0.5,0.2-1.1,0.2-1.6v-45.5
	c0-4.4-3.6-8-8-8c-4.4,0-8,3.6-8,8v26.1L46,34.2h26.1c4.4,0,8-3.6,8-8s-3.6-8-8-8H26.6c-0.5,0-1.1,0.1-1.6,0.2
	c-0.2,0-0.4,0.1-0.7,0.2c-0.3,0.1-0.6,0.1-0.8,0.3c-0.3,0.1-0.5,0.3-0.7,0.4c-0.2,0.1-0.4,0.2-0.6,0.3c-0.9,0.6-1.6,1.3-2.2,2.2
	c-0.1,0.2-0.2,0.4-0.3,0.6c-0.1,0.2-0.3,0.5-0.4,0.7c-0.1,0.3-0.2,0.6-0.3,0.8c-0.1,0.2-0.1,0.4-0.2,0.7c-0.1,0.5-0.2,1.1-0.2,1.6
	v45.5c0,2.2,0.9,4.2,2.4,5.7c1.5,1.5,3.5,2.4,5.7,2.4c4.4,0,8-3.6,8-8V45.5L155,165.9h-26.1c-4.4,0-8,3.6-8,8c0,2.2,0.9,4.2,2.4,5.7
	c1.5,1.5,3.5,2.4,5.7,2.4h45.5c0.5,0,1.1-0.1,1.6-0.2c0.2,0,0.4-0.1,0.6-0.2C176.9,181.6,177.2,181.5,177.5,181.4z"/>
</svg>
